<svg xmlns="http://www.w3.org/2000/svg" xmlns:xlink="http://www.w3.org/1999/xlink" width="400" zoomAndPan="magnify" viewBox="0 0 300 74.999997" height="100" preserveAspectRatio="xMidYMid meet" version="1.0"><defs><g/><clipPath id="974154f15d"><rect x="0" width="288" y="0" height="74"/></clipPath></defs><g transform="matrix(1, 0, 0, 1, 7, -0.000000000000001887)"><g clip-path="url(#974154f15d)"><g fill="#a67b5b" fill-opacity="1"><g transform="translate(0.500005, 53.667317)"><g><path d="M 12.53125 0.484375 C 10.289062 0.484375 8.148438 0.289062 6.109375 -0.09375 C 4.078125 -0.476562 2.378906 -1.015625 1.015625 -1.703125 L 1.015625 -10.484375 C 2.566406 -9.742188 4.289062 -9.128906 6.1875 -8.640625 C 8.082031 -8.148438 9.773438 -7.90625 11.265625 -7.90625 C 12.234375 -7.90625 12.992188 -8.023438 13.546875 -8.265625 C 14.097656 -8.515625 14.375 -8.867188 14.375 -9.328125 C 14.375 -9.710938 14.144531 -10.023438 13.6875 -10.265625 C 13.238281 -10.503906 12.398438 -10.835938 11.171875 -11.265625 C 9.742188 -11.742188 8.929688 -12.019531 8.734375 -12.09375 C 6.660156 -12.863281 5.054688 -13.671875 3.921875 -14.515625 C 2.796875 -15.359375 1.984375 -16.359375 1.484375 -17.515625 C 0.984375 -18.679688 0.734375 -20.171875 0.734375 -21.984375 C 0.734375 -25.285156 1.875 -27.738281 4.15625 -29.34375 C 6.4375 -30.945312 9.875 -31.75 14.46875 -31.75 C 15.988281 -31.75 17.75 -31.59375 19.75 -31.28125 C 21.757812 -30.976562 23.429688 -30.632812 24.765625 -30.25 L 24.765625 -21.40625 C 21.679688 -22.664062 18.910156 -23.296875 16.453125 -23.296875 C 13.960938 -23.296875 12.71875 -22.894531 12.71875 -22.09375 C 12.71875 -21.769531 12.941406 -21.5 13.390625 -21.28125 C 13.847656 -21.070312 14.757812 -20.773438 16.125 -20.390625 L 17.375 -20.046875 C 19.875 -19.367188 21.773438 -18.535156 23.078125 -17.546875 C 24.390625 -16.554688 25.28125 -15.421875 25.75 -14.140625 C 26.21875 -12.867188 26.453125 -11.28125 26.453125 -9.375 C 26.453125 -6.332031 25.265625 -3.925781 22.890625 -2.15625 C 20.515625 -0.394531 17.0625 0.484375 12.53125 0.484375 Z M 12.53125 0.484375 "/></g></g></g><g fill="#a67b5b" fill-opacity="1"><g transform="translate(27.684894, 53.667317)"><g><path d="M 17.484375 0.484375 C 11.972656 0.484375 7.800781 -0.773438 4.96875 -3.296875 C 2.144531 -5.828125 0.734375 -9.9375 0.734375 -15.625 C 0.734375 -21.320312 2.144531 -25.429688 4.96875 -27.953125 C 7.800781 -30.484375 11.972656 -31.75 17.484375 -31.75 C 22.984375 -31.75 27.144531 -30.484375 29.96875 -27.953125 C 32.800781 -25.429688 34.21875 -21.320312 34.21875 -15.625 C 34.21875 -9.9375 32.800781 -5.828125 29.96875 -3.296875 C 27.144531 -0.773438 22.984375 0.484375 17.484375 0.484375 Z M 17.484375 -9.46875 C 19.191406 -9.46875 20.410156 -9.925781 21.140625 -10.84375 C 21.867188 -11.769531 22.234375 -13.363281 22.234375 -15.625 C 22.234375 -17.894531 21.867188 -19.488281 21.140625 -20.40625 C 20.410156 -21.332031 19.191406 -21.796875 17.484375 -21.796875 C 15.765625 -21.796875 14.539062 -21.332031 13.8125 -20.40625 C 13.082031 -19.488281 12.71875 -17.894531 12.71875 -15.625 C 12.71875 -13.363281 13.082031 -11.769531 13.8125 -10.84375 C 14.539062 -9.925781 15.765625 -9.46875 17.484375 -9.46875 Z M 17.484375 -9.46875 "/></g></g></g><g fill="#a67b5b" fill-opacity="1"><g transform="translate(62.636893, 53.667317)"><g><path d="M 17.09375 0.484375 C 14.113281 0.484375 11.441406 -0.00390625 9.078125 -0.984375 C 6.710938 -1.972656 4.847656 -3.429688 3.484375 -5.359375 C 2.128906 -7.285156 1.453125 -9.609375 1.453125 -12.328125 L 1.453125 -31.265625 L 13.203125 -31.265625 L 13.203125 -13.828125 C 13.203125 -10.921875 14.5 -9.46875 17.09375 -9.46875 C 19.675781 -9.46875 20.96875 -10.921875 20.96875 -13.828125 L 20.96875 -31.265625 L 32.71875 -31.265625 L 32.71875 -12.328125 C 32.71875 -9.609375 32.035156 -7.285156 30.671875 -5.359375 C 29.316406 -3.429688 27.457031 -1.972656 25.09375 -0.984375 C 22.738281 -0.00390625 20.070312 0.484375 17.09375 0.484375 Z M 17.09375 0.484375 "/></g></g></g><g fill="#a67b5b" fill-opacity="1"><g transform="translate(96.812181, 53.667317)"><g><path d="M 1.703125 -31.265625 L 11.546875 -31.265625 L 20.296875 -19.03125 L 20.296875 -31.265625 L 32.046875 -31.265625 L 32.046875 0 L 22.140625 0 L 13.453125 -12.234375 L 13.453125 0 L 1.703125 0 Z M 1.703125 -31.265625 "/></g></g></g><g fill="#a67b5b" fill-opacity="1"><g transform="translate(130.550565, 53.667317)"><g><path d="M 1.703125 -31.265625 L 16.546875 -31.265625 C 27.359375 -31.265625 32.765625 -25.988281 32.765625 -15.4375 C 32.765625 -10.164062 31.363281 -6.273438 28.5625 -3.765625 C 25.769531 -1.253906 21.765625 0 16.546875 0 L 1.703125 0 Z M 15.1875 -8.9375 C 17.101562 -8.9375 18.519531 -9.378906 19.4375 -10.265625 C 20.363281 -11.160156 20.828125 -12.882812 20.828125 -15.4375 C 20.828125 -17.1875 20.625 -18.515625 20.21875 -19.421875 C 19.8125 -20.328125 19.210938 -20.925781 18.421875 -21.21875 C 17.628906 -21.507812 16.550781 -21.65625 15.1875 -21.65625 L 13.453125 -21.65625 L 13.453125 -8.9375 Z M 15.1875 -8.9375 "/></g></g></g><g fill="#a67b5b" fill-opacity="1"><g transform="translate(164.046239, 53.667317)"><g/></g></g><g fill="#a67b5b" fill-opacity="1"><g transform="translate(178.609557, 53.667317)"><g><path d="M 0.734375 -31.265625 L 12.1875 -31.265625 L 14.5625 -19.328125 L 16.359375 -25.96875 L 16.359375 -31.265625 L 25.921875 -31.265625 L 29.421875 -19.265625 L 32.09375 -31.265625 L 43.5 -31.265625 L 36.265625 0 L 26.015625 0 L 22.28125 -12.328125 L 18.25 0 L 8.015625 0 Z M 0.734375 -31.265625 "/></g></g></g><g fill="#a67b5b" fill-opacity="1"><g transform="translate(217.736463, 53.667317)"><g><path d="M 12.765625 -31.265625 L 24.953125 -31.265625 L 37 0 L 24.765625 0 L 22.53125 -5.828125 L 15.1875 -5.828125 L 12.96875 0 L 0.734375 0 Z M 21.21875 -13.828125 L 18.84375 -19.8125 L 16.453125 -13.828125 Z M 21.21875 -13.828125 "/></g></g></g><g fill="#a67b5b" fill-opacity="1"><g transform="translate(249.872908, 53.667317)"><g><path d="M 12.046875 -11.359375 L 0.734375 -31.265625 L 12.96875 -31.265625 L 17.90625 -21.3125 L 22.859375 -31.265625 L 35.09375 -31.265625 L 23.78125 -11.359375 L 23.78125 0 L 12.046875 0 Z M 12.046875 -11.359375 "/></g></g></g></g></g></svg>